# xmcd
#
# Track frame offsets: 
#        150
#        18937
#        30688
#        45654
#        72696
#
# Disc length: 1233 seconds
#
# Revision: 0
# Processed by: cddbd v1.5.2PL0 Copyright (c) Steve Scherf et al.
# Submitted via: ExactAudioCopy v1.0b4
#
DISCID=3e04cf05
DTITLE=Bo Diddley - Sweet Home Chicago (LP)
DYEAR=1900
DGENRE=Blues
TTITLE0=It' s Great To Be Rich
TTITLE1=Lesters Comet
TTITLE2=La Cucaracha
TTITLE3=Don' t Know Where I've Been
TTITLE4=Sweet Home Chicago
EXTD=
EXTT0=
EXTT1=
EXTT2=
EXTT3=
EXTT4=
PLAYORDER=
